<mxfile host="app.diagrams.net" modified="2024-05-12T22:51:58.376Z" agent="Mozilla/5.0 (Windows NT 10.0; Win64; x64) AppleWebKit/537.36 (KHTML, like Gecko) Chrome/124.0.0.0 Safari/537.36" etag="btAncpOX11QJsWT1tPWN" version="24.4.0" type="device">
  <diagram name="PÃ¡gina-1" id="qlpE2W1mwksVtwkRHT8-">
    <mxGraphModel dx="1290" dy="653" grid="1" gridSize="10" guides="1" tooltips="1" connect="1" arrows="1" fold="1" page="1" pageScale="1" pageWidth="827" pageHeight="1169" math="0" shadow="0">
      <root>
        <mxCell id="0" />
        <mxCell id="1" parent="0" />
        <mxCell id="vInXERB8u8oUtcoaKAoV-22" style="edgeStyle=orthogonalEdgeStyle;rounded=0;orthogonalLoop=1;jettySize=auto;html=1;exitX=0.5;exitY=1;exitDx=0;exitDy=0;entryX=0.5;entryY=0;entryDx=0;entryDy=0;" edge="1" parent="1" source="vInXERB8u8oUtcoaKAoV-1" target="vInXERB8u8oUtcoaKAoV-2">
          <mxGeometry relative="1" as="geometry" />
        </mxCell>
        <mxCell id="vInXERB8u8oUtcoaKAoV-1" value="Algoritmo Practico 2 ejer 1" style="ellipse;whiteSpace=wrap;html=1;" vertex="1" parent="1">
          <mxGeometry x="354" y="10" width="166" height="80" as="geometry" />
        </mxCell>
        <mxCell id="vInXERB8u8oUtcoaKAoV-5" style="edgeStyle=orthogonalEdgeStyle;rounded=0;orthogonalLoop=1;jettySize=auto;html=1;exitX=0.5;exitY=1;exitDx=0;exitDy=0;" edge="1" parent="1" source="vInXERB8u8oUtcoaKAoV-2" target="vInXERB8u8oUtcoaKAoV-3">
          <mxGeometry relative="1" as="geometry" />
        </mxCell>
        <mxCell id="vInXERB8u8oUtcoaKAoV-2" value="entrada string s1" style="rounded=0;whiteSpace=wrap;html=1;" vertex="1" parent="1">
          <mxGeometry x="377" y="110" width="120" height="60" as="geometry" />
        </mxCell>
        <mxCell id="vInXERB8u8oUtcoaKAoV-6" style="edgeStyle=orthogonalEdgeStyle;rounded=0;orthogonalLoop=1;jettySize=auto;html=1;exitX=0.5;exitY=1;exitDx=0;exitDy=0;entryX=0.5;entryY=0;entryDx=0;entryDy=0;" edge="1" parent="1" source="vInXERB8u8oUtcoaKAoV-3" target="vInXERB8u8oUtcoaKAoV-4">
          <mxGeometry relative="1" as="geometry" />
        </mxCell>
        <mxCell id="vInXERB8u8oUtcoaKAoV-3" value="definir i = 0" style="rounded=0;whiteSpace=wrap;html=1;" vertex="1" parent="1">
          <mxGeometry x="377" y="200" width="120" height="60" as="geometry" />
        </mxCell>
        <mxCell id="vInXERB8u8oUtcoaKAoV-7" style="edgeStyle=orthogonalEdgeStyle;rounded=0;orthogonalLoop=1;jettySize=auto;html=1;exitX=1;exitY=0.5;exitDx=0;exitDy=0;" edge="1" parent="1" source="vInXERB8u8oUtcoaKAoV-4">
          <mxGeometry relative="1" as="geometry">
            <mxPoint x="600" y="420" as="targetPoint" />
          </mxGeometry>
        </mxCell>
        <mxCell id="vInXERB8u8oUtcoaKAoV-9" value="V" style="edgeLabel;html=1;align=center;verticalAlign=middle;resizable=0;points=[];" vertex="1" connectable="0" parent="vInXERB8u8oUtcoaKAoV-7">
          <mxGeometry x="0.1414" y="-2" relative="1" as="geometry">
            <mxPoint as="offset" />
          </mxGeometry>
        </mxCell>
        <mxCell id="vInXERB8u8oUtcoaKAoV-8" style="edgeStyle=orthogonalEdgeStyle;rounded=0;orthogonalLoop=1;jettySize=auto;html=1;exitX=0;exitY=0.5;exitDx=0;exitDy=0;" edge="1" parent="1" source="vInXERB8u8oUtcoaKAoV-4">
          <mxGeometry relative="1" as="geometry">
            <mxPoint x="270" y="420" as="targetPoint" />
          </mxGeometry>
        </mxCell>
        <mxCell id="vInXERB8u8oUtcoaKAoV-10" value="F" style="edgeLabel;html=1;align=center;verticalAlign=middle;resizable=0;points=[];" vertex="1" connectable="0" parent="vInXERB8u8oUtcoaKAoV-8">
          <mxGeometry x="0.0633" y="4" relative="1" as="geometry">
            <mxPoint as="offset" />
          </mxGeometry>
        </mxCell>
        <mxCell id="vInXERB8u8oUtcoaKAoV-4" value="&#xa;&lt;div style=&quot;color: #3b3b3b;background-color: #ffffff;font-family: Consolas, &#39;Courier New&#39;, monospace;font-weight: normal;font-size: 14px;line-height: 19px;white-space: pre;&quot;&gt;&lt;div&gt;&lt;span style=&quot;color: #3b3b3b;&quot;&gt;i&lt;/span&gt;&lt;span style=&quot;color: #000000;&quot;&gt;&amp;lt;=&lt;/span&gt;&lt;span style=&quot;color: #001080;&quot;&gt;s1&lt;/span&gt;&lt;span style=&quot;color: #3b3b3b;&quot;&gt;.&lt;/span&gt;&lt;span style=&quot;color: #795e26;&quot;&gt;size&lt;/span&gt;&lt;span style=&quot;color: #3b3b3b;&quot;&gt;()&lt;/span&gt;&lt;/div&gt;&lt;/div&gt;&#xa;&#xa;" style="rhombus;whiteSpace=wrap;html=1;" vertex="1" parent="1">
          <mxGeometry x="370.5" y="300" width="133" height="80" as="geometry" />
        </mxCell>
        <mxCell id="vInXERB8u8oUtcoaKAoV-12" style="edgeStyle=orthogonalEdgeStyle;rounded=0;orthogonalLoop=1;jettySize=auto;html=1;exitX=1;exitY=0.5;exitDx=0;exitDy=0;" edge="1" parent="1" source="vInXERB8u8oUtcoaKAoV-11">
          <mxGeometry relative="1" as="geometry">
            <mxPoint x="680" y="520" as="targetPoint" />
          </mxGeometry>
        </mxCell>
        <mxCell id="vInXERB8u8oUtcoaKAoV-14" value="V" style="edgeLabel;html=1;align=center;verticalAlign=middle;resizable=0;points=[];" vertex="1" connectable="0" parent="vInXERB8u8oUtcoaKAoV-12">
          <mxGeometry x="-0.2279" y="2" relative="1" as="geometry">
            <mxPoint as="offset" />
          </mxGeometry>
        </mxCell>
        <mxCell id="vInXERB8u8oUtcoaKAoV-11" value="&lt;br&gt;&lt;div style=&quot;color: #3b3b3b;background-color: #ffffff;font-family: Consolas, &#39;Courier New&#39;, monospace;font-weight: normal;font-size: 14px;line-height: 19px;white-space: pre;&quot;&gt;&lt;div&gt;&lt;span style=&quot;color: #001080;&quot;&gt;s1&lt;/span&gt;&lt;span style=&quot;color: #3b3b3b;&quot;&gt;[i]&lt;/span&gt;&lt;span style=&quot;color: #000000;&quot;&gt;=&lt;/span&gt;&lt;span style=&quot;color: #a31515;&quot;&gt;&#39; &#39;&lt;/span&gt;&lt;/div&gt;&lt;/div&gt;&lt;div&gt;&lt;br/&gt;&lt;/div&gt;" style="rhombus;whiteSpace=wrap;html=1;" vertex="1" parent="1">
          <mxGeometry x="560" y="420" width="80" height="80" as="geometry" />
        </mxCell>
        <mxCell id="vInXERB8u8oUtcoaKAoV-17" style="edgeStyle=orthogonalEdgeStyle;rounded=0;orthogonalLoop=1;jettySize=auto;html=1;exitX=1;exitY=0.5;exitDx=0;exitDy=0;entryX=0.5;entryY=0;entryDx=0;entryDy=0;" edge="1" parent="1" source="vInXERB8u8oUtcoaKAoV-15" target="vInXERB8u8oUtcoaKAoV-4">
          <mxGeometry relative="1" as="geometry">
            <Array as="points">
              <mxPoint x="770" y="550" />
              <mxPoint x="770" y="280" />
              <mxPoint x="437" y="280" />
            </Array>
          </mxGeometry>
        </mxCell>
        <mxCell id="vInXERB8u8oUtcoaKAoV-18" value="i = i + 1" style="edgeLabel;html=1;align=center;verticalAlign=middle;resizable=0;points=[];" vertex="1" connectable="0" parent="vInXERB8u8oUtcoaKAoV-17">
          <mxGeometry x="-0.454" y="1" relative="1" as="geometry">
            <mxPoint as="offset" />
          </mxGeometry>
        </mxCell>
        <mxCell id="vInXERB8u8oUtcoaKAoV-15" value="mostrar i" style="shape=parallelogram;perimeter=parallelogramPerimeter;whiteSpace=wrap;html=1;fixedSize=1;" vertex="1" parent="1">
          <mxGeometry x="620" y="520" width="120" height="60" as="geometry" />
        </mxCell>
        <mxCell id="vInXERB8u8oUtcoaKAoV-21" style="edgeStyle=orthogonalEdgeStyle;rounded=0;orthogonalLoop=1;jettySize=auto;html=1;exitX=0.5;exitY=1;exitDx=0;exitDy=0;" edge="1" parent="1" source="vInXERB8u8oUtcoaKAoV-19" target="vInXERB8u8oUtcoaKAoV-20">
          <mxGeometry relative="1" as="geometry" />
        </mxCell>
        <mxCell id="vInXERB8u8oUtcoaKAoV-19" value="mostrar&amp;nbsp;&lt;span style=&quot;font-family: Consolas, &amp;quot;Courier New&amp;quot;, monospace; font-size: 14px; white-space: pre; color: rgb(0, 16, 128);&quot;&gt;s1&lt;/span&gt;&lt;span style=&quot;background-color: rgb(255, 255, 255); color: rgb(59, 59, 59); font-family: Consolas, &amp;quot;Courier New&amp;quot;, monospace; font-size: 14px; white-space: pre;&quot;&gt;.&lt;/span&gt;&lt;span style=&quot;font-family: Consolas, &amp;quot;Courier New&amp;quot;, monospace; font-size: 14px; white-space: pre; color: rgb(121, 94, 38);&quot;&gt;size&lt;/span&gt;&lt;span style=&quot;background-color: rgb(255, 255, 255); color: rgb(59, 59, 59); font-family: Consolas, &amp;quot;Courier New&amp;quot;, monospace; font-size: 14px; white-space: pre;&quot;&gt;()&lt;/span&gt;" style="shape=parallelogram;perimeter=parallelogramPerimeter;whiteSpace=wrap;html=1;fixedSize=1;" vertex="1" parent="1">
          <mxGeometry x="190" y="420" width="150" height="60" as="geometry" />
        </mxCell>
        <mxCell id="vInXERB8u8oUtcoaKAoV-20" value="FinAlgorritmo" style="ellipse;whiteSpace=wrap;html=1;" vertex="1" parent="1">
          <mxGeometry x="205" y="545" width="120" height="80" as="geometry" />
        </mxCell>
      </root>
    </mxGraphModel>
  </diagram>
</mxfile>
